<?xml version="1.0" standalone="no"?>
<!DOCTYPE svg PUBLIC "-//W3C//DTD SVG 20010904//EN"
 "http://www.w3.org/TR/2001/REC-SVG-20010904/DTD/svg10.dtd">
<svg version="1.0" xmlns="http://www.w3.org/2000/svg"
 width="257.000000pt" height="285.000000pt" viewBox="0 0 257.000000 285.000000"
 preserveAspectRatio="xMidYMid meet">

<g transform="translate(0.000000,285.000000) scale(0.100000,-0.100000)"
fill="#000000" stroke="none">
<path d="M1358 2601 c-66 -14 -161 -69 -221 -128 -32 -32 -62 -65 -67 -73 -5
-8 -11 -12 -14 -9 -3 3 8 27 24 53 33 52 37 65 15 46 -12 -10 -15 -9 -15 5 0
14 -3 15 -15 5 -8 -7 -15 -9 -15 -5 0 4 -6 3 -12 -3 -7 -5 -28 -13 -45 -17
-18 -3 -33 -10 -33 -14 0 -10 -81 -37 -98 -33 -24 6 -77 -29 -102 -66 -14 -20
-29 -40 -33 -43 -5 -3 -8 -9 -8 -12 0 -4 -9 -28 -20 -53 -11 -26 -17 -49 -14
-52 3 -3 1 -10 -4 -16 -13 -16 -79 -240 -93 -312 -9 -53 -9 -77 6 -151 10 -48
19 -95 20 -103 1 -8 13 -33 27 -55 54 -83 62 -108 63 -182 0 -40 4 -73 8 -73
18 0 45 143 62 325 8 83 17 160 19 171 7 30 30 64 42 64 6 0 44 33 84 74 79
80 122 101 259 127 92 17 345 -2 542 -42 133 -27 222 -93 277 -203 33 -67 35
-78 36 -176 2 -97 -15 -367 -29 -485 l-7 -50 32 30 32 30 -5 95 c-3 52 -3 87
0 78 3 -10 10 -18 15 -18 5 0 9 -7 9 -16 0 -8 12 -31 26 -50 15 -19 21 -34 15
-34 -6 0 -11 -5 -11 -12 0 -8 5 -7 16 3 21 21 31 123 14 153 -7 13 -23 29 -36
35 -13 5 -26 21 -29 33 -7 27 28 113 49 121 46 18 69 145 56 309 -9 124 -18
152 -49 161 -15 4 -20 -2 -26 -30 -8 -44 -21 -48 -77 -24 l-45 19 -12 72 c-12
76 -10 85 17 85 13 0 17 8 16 32 -1 17 -7 37 -13 45 -44 54 -60 78 -70 110
-26 79 -137 169 -251 203 -14 4 -45 18 -70 31 -50 25 -177 38 -242 25z m123
-61 c13 -10 21 -19 18 -20 -9 0 -69 31 -69 36 0 11 30 2 51 -16z m-67 -5 c25
-19 8 -19 -35 0 -31 13 -32 14 -9 14 14 0 34 -6 44 -14z m-7 -57 c13 -12 23
-26 23 -32 0 -5 -16 6 -36 25 -19 18 -37 33 -39 32 -11 -4 -45 10 -45 18 0 13
71 -18 97 -43z m273 7 c0 -8 -2 -15 -4 -15 -2 0 -6 7 -10 15 -3 8 -1 15 4 15
6 0 10 -7 10 -15z"/>
<path d="M1001 1667 c-83 -22 -76 -65 14 -85 l40 -9 -26 -13 c-15 -6 -32 -24
-39 -38 -10 -22 -9 -28 6 -39 10 -7 30 -13 44 -13 15 0 40 -6 56 -14 16 -7 44
-20 62 -27 38 -16 40 -22 10 -37 -19 -9 -12 -11 44 -11 43 -1 71 4 80 12 21
22 42 25 54 8 21 -27 45 5 44 58 0 25 2 59 6 74 10 42 -25 72 -115 101 -143
46 -202 53 -280 33z m119 -183 c0 -8 -4 -12 -10 -9 -5 3 -10 10 -10 16 0 5 5
9 10 9 6 0 10 -7 10 -16z"/>
<path d="M526 1565 c-18 -18 -39 -88 -34 -113 5 -27 42 -21 46 7 5 33 31 71
48 71 19 0 17 14 -4 33 -23 21 -36 21 -56 2z"/>
<path d="M1618 1551 c-26 -22 -37 -43 -47 -88 -17 -80 -13 -107 19 -111 14 -2
32 -10 40 -16 22 -19 78 -36 116 -36 37 0 44 13 17 29 -17 10 -17 10 0 11 10
0 29 7 42 16 20 13 31 14 56 5 40 -14 55 -3 63 44 4 21 17 42 31 51 44 29 25
78 -42 113 -12 6 -72 11 -142 11 -119 0 -121 0 -153 -29z m182 -151 c0 -5 -4
-10 -10 -10 -5 0 -10 5 -10 10 0 6 5 10 10 10 6 0 10 -4 10 -10z"/>
<path d="M620 1497 c0 -10 8 -17 18 -17 9 0 13 4 7 8 -5 4 -13 11 -17 16 -5 5
-8 2 -8 -7z"/>
<path d="M612 1409 c-38 -37 -42 -77 -11 -120 28 -40 35 -36 31 15 -3 39 0 47
27 71 24 22 28 31 20 46 -14 27 -30 24 -67 -12z"/>
<path d="M666 1226 c3 -9 11 -16 16 -16 13 0 5 23 -10 28 -7 2 -10 -2 -6 -12z"/>
<path d="M1611 1110 c14 -31 19 -36 19 -24 0 6 -7 19 -16 30 -14 18 -14 18 -3
-6z"/>
<path d="M1160 1080 c0 -5 4 -10 9 -10 6 0 13 5 16 10 3 6 -1 10 -9 10 -9 0
-16 -4 -16 -10z"/>
<path d="M700 1066 c0 -23 -37 -38 -72 -31 l-31 7 7 -48 c3 -26 11 -62 18 -80
10 -28 7 -40 -39 -135 -28 -57 -53 -113 -57 -125 -10 -32 -45 -58 -106 -78
-30 -11 -59 -23 -65 -27 -5 -5 -21 -9 -36 -9 -15 0 -30 -4 -33 -9 -3 -5 -17
-12 -30 -15 -13 -3 -57 -21 -98 -41 -41 -19 -92 -40 -113 -47 l-40 -13 -3
-208 -2 -207 1285 0 1285 0 0 251 0 250 -30 27 c-30 27 -45 36 -200 110 -141
68 -160 74 -280 83 -149 12 -222 0 -275 -45 -29 -25 -36 -37 -31 -54 6 -17 3
-19 -14 -15 -17 4 -35 -8 -80 -52 -49 -48 -65 -58 -92 -58 -46 1 -129 23 -123
33 3 4 -2 10 -10 14 -8 3 -19 -3 -25 -12 -9 -16 -11 -16 -25 2 -11 14 -22 17
-45 13 -17 -4 -30 -2 -30 3 0 15 -21 12 -42 -7 -15 -13 -23 -14 -44 -5 -13 7
-44 12 -68 12 -66 0 -130 55 -189 162 -25 45 -38 59 -62 64 -16 4 -39 13 -50
20 -28 20 -35 17 -35 -12 0 -14 4 -23 10 -19 6 3 10 -2 10 -12 0 -10 9 -45 21
-77 12 -35 16 -62 11 -65 -5 -3 -15 -32 -22 -64 -11 -57 -28 -77 -65 -77 -8 0
-19 8 -23 18 -19 47 -58 92 -77 90 -16 -3 -21 4 -23 35 -3 32 3 44 47 95 63
72 71 111 43 203 -11 36 -23 87 -27 112 -7 45 -25 76 -25 43z"/>
<path d="M1259 1018 c-17 -13 -44 -20 -80 -21 -68 -3 -105 -25 -128 -78 -18
-38 -17 -99 1 -99 5 0 27 9 48 20 37 19 43 19 69 5 16 -8 38 -25 48 -37 10
-13 35 -34 55 -48 42 -28 41 -35 -10 -35 -31 0 -38 -4 -40 -22 -2 -14 6 -31
21 -45 49 -46 79 -68 92 -68 8 0 17 -5 20 -10 4 -6 15 -8 25 -5 10 3 21 1 25
-5 9 -15 25 -12 25 6 0 8 17 22 38 31 20 8 45 22 55 31 20 17 23 64 5 61 -7 0
-23 2 -35 6 -19 6 -16 10 32 36 67 35 79 36 122 3 24 -18 34 -21 37 -12 37
122 30 146 -56 192 -38 21 -58 37 -58 50 0 14 -5 17 -22 11 -13 -4 -47 -9 -76
-12 -41 -4 -57 -2 -71 11 -10 10 -41 25 -67 35 -48 18 -50 18 -75 -1z m38
-199 c20 -7 24 -12 14 -18 -12 -8 -71 13 -71 25 0 7 28 4 57 -7z"/>
<path d="M1710 634 c0 -8 5 -12 10 -9 6 4 8 11 5 16 -9 14 -15 11 -15 -7z"/>
</g>
</svg>
